# xmcd CD database file
#
# Track frame offsets:
#	150
#	20156
#	43027
#	63389
#	82037
#	104649
#	125065
#	147178
#	165940
#	189147
#
# Disc length: 2827 seconds
#
# Revision: 0
# Processed by: cddbd v1.5.1PL0 Copyright (c) Steve Scherf et al.
# Submitted via: CDex 1.51
#
DISCID=880b090a
DTITLE=Bass X - Vol 2 Heir Wave
DYEAR=2003
DGENRE=Jazz
TTITLE0=Vonnie
TTITLE1=As It Is
TTITLE2=All Inside
TTITLE3=Tonite
TTITLE4=PR Too!!
TTITLE5=Baby I'm Ready
TTITLE6=See You Again
TTITLE7=Rainy Day
TTITLE8=My Heart
TTITLE9=Flying Home
EXTD=YEAR: 2003
EXTT0=
EXTT1=
EXTT2=
EXTT3=
EXTT4=
EXTT5=
EXTT6=
EXTT7=
EXTT8=
EXTT9=
PLAYORDER=
